# xmcd CD database file
# Copyright (C) 1993-1998 Ti Kan
#
# Track frame offsets:
#	187
#	13617
#	30002
#	43805
#	49897
#	65917
#	76272
#	88757
#	108472
#	118725
#	127940
#	140960
#	155152
#	172930
#	206037
#
# Disc length: 2954 seconds
#
# Revision: 1
# Processed by: cddbd v1.4b41PL1 Copyright (c) Steve Scherf et al.
# Submitted via: CDValet v3.31 - Copyright (c) 1997 Greg Leichner
#
DISCID=d20b880f
DTITLE=Willie Dixon - Ginger Ale Afternoon
DYEAR=1900
DGENRE=
TTITLE0=Miseries Of Memories
TTITLE1=Wigglin' Worm
TTITLE2=I Don't Trust Nobody
TTITLE3=Earthquake And Hurricane
TTITLE4=The Real Thing
TTITLE5=Move Me Baby
TTITLE6=Save My Child
TTITLE7=I Just Want To Make Love to You
TTITLE8=Sittin' and Cryin' The Blues
TTITLE9=Save My Child II
TTITLE10=Shakin' The Shack
TTITLE11=That's My Baby
TTITLE12=Ginger Ale blues
TTITLE13=Save My Child III
TTITLE14=Good Understanding
EXTD=
EXTT0=
EXTT1=
EXTT2=
EXTT3=
EXTT4=
EXTT5=
EXTT6=
EXTT7=
EXTT8=
EXTT9=
EXTT10=
EXTT11=
EXTT12=
EXTT13=
EXTT14=
PLAYORDER=
